<svg width="100" height="100" viewBox="0 0 100 100" fill="none" xmlns="http://www.w3.org/2000/svg">
<g clip-path="url(#clip0_269_2546)">
<path d="M92.9293 7.07208H87.7526V9.73117L87.6945 9.80188C86.1389 11.6756 82.9495 15.2577 79.0581 18.2084L78.8927 18.3347L78.7374 18.1958C75.2702 15.0986 72.173 13.2653 71.4407 12.8486L68.596 15.6933C69.3523 16.1302 71.4849 17.4231 74.0442 19.4913L74.2626 19.668L20.9584 72.9749C20.9167 73.0165 20.875 73.0595 20.8346 73.1024C16.1187 77.9408 12.6717 86.0481 11.8119 88.192C13.9571 87.3309 22.0632 83.8852 26.9003 79.1706L27.0783 78.9963L80.3826 25.6933L80.5594 25.9079C82.0127 27.6769 83.274 29.5241 84.3132 31.4029L87.1553 28.5607C85.774 26.0304 83.9836 23.567 81.8334 21.2375L81.6894 21.0822L81.8169 20.9143C84.7652 17.0355 88.3359 13.8574 90.2008 12.3082L90.2715 12.2501H92.9293V7.07461V7.07208Z" fill="#00F2B2"/>
<path d="M19.6351 19.6353V67.4206L67.4204 19.6353H56.9495L26.9583 49.6264V19.6353H19.6351Z" fill="#00F2B2"/>
<path d="M80.3674 55.3676V32.5809L32.5808 80.3676H80.3674V60.5443H69.4495L62.1263 67.8676H73.0442V73.0443H50.375L73.0442 50.3751V55.3676H80.3674Z" fill="#00F2B2"/>
</g>
<defs>
<clipPath id="clip0_269_2546">
<rect width="100" height="100" fill="white"/>
</clipPath>
</defs>
</svg>
