<svg width="200" height="200" viewBox="0 0 200 200" fill="none" xmlns="http://www.w3.org/2000/svg">
<path d="M108.45 31.3214C141.731 35.6071 167.5 64.7857 167.5 100.143C167.5 112.964 164.092 124.964 158.18 135.286H140.34C143.818 131.071 146.635 126.393 148.756 121.286C151.503 114.607 152.894 107.464 152.894 100.143C152.894 92.7857 151.503 85.6785 148.756 79C146.078 72.5357 142.288 66.7143 137.419 61.7143C132.55 56.7143 126.882 52.7858 120.587 50.0714C116.692 48.3571 112.624 47.1786 108.45 46.5V31.3214ZM56.9475 153.536V131.714C54.6871 128.464 52.7744 124.964 51.2442 121.286C48.4969 114.607 47.1059 107.464 47.1059 100.143C47.1059 92.7857 48.4969 85.6785 51.2442 79C52.7744 75.2858 54.6871 71.7856 56.9475 68.5714V46.7142C41.9938 59.4286 32.5 78.6429 32.5 100.143C32.5 121.643 41.9938 140.821 56.9475 153.536ZM98.3655 25H59.6599L67.0673 40.5357V159.643L59.7643 175H147.469L155.468 145.643H98.3655V25Z" fill="#00F2B2"/>
</svg>
