<svg width="200" height="200" viewBox="0 0 200 200" fill="none" xmlns="http://www.w3.org/2000/svg">
<path fill-rule="evenodd" clip-rule="evenodd" d="M175.573 51.0724L175.308 48.1553L172.656 46.2987C161.517 38.6079 140.301 29.5911 102.378 29.5911C88.0569 29.5911 75.0622 30.9171 63.6585 33.5691C59.6806 30.1214 54.3766 28 48.8072 28C36.3428 28 26 38.0776 26 50.8072C26 54.7852 27.0609 58.498 28.9171 61.9454C29.4477 81.5704 35.5474 101.991 47.4812 122.677C67.1062 155.826 88.0569 165.639 98.1345 170.147C98.9299 170.413 99.4605 170.678 99.9911 170.943L102.643 172.269L105.295 170.943C105.56 170.81 105.892 170.678 106.223 170.545C106.555 170.413 106.886 170.28 107.151 170.147C117.494 165.639 138.18 155.826 157.274 122.677C178.225 86.3441 176.369 59.824 175.573 51.0724ZM68.1668 77.0619L67.9016 78.9181H68.1668V77.0619ZM69.2276 77.5921L68.9625 79.4484H69.2276V77.5921ZM68.697 77.3264L68.4319 79.1829H68.697V77.3264ZM67.9016 76.7964L67.6365 76.5306V78.3869H67.9016V76.7964ZM89.648 88.1997L90.1786 87.9343L92.5654 84.2214C89.648 83.9556 87.5263 86.6083 87.5263 86.6083V86.6086L89.648 88.1997ZM67.3714 76.531L67.1059 78.1221H67.3714V76.531ZM93.8911 84.7523L91.7697 88.4648L92.0349 88.7306L96.2783 88.9964C96.2783 86.079 93.8914 84.753 93.8914 84.753L93.8911 84.7523ZM91.5046 91.3823L92.8303 95.6254C95.4826 93.7688 96.0128 90.8517 96.0128 90.8517L91.7697 91.1175L91.5046 91.3823ZM62.3322 73.6139L62.0671 76.531H63.9237V76.2655H63.6585V75.9997H63.3931L63.6585 75.4695L63.9237 74.1435L63.6585 73.8777V73.3478L63.9237 73.082L64.1888 69.8994L62.8628 69.1037C63.3934 66.982 64.7191 65.1257 64.7191 65.1257H63.9237C62.5977 66.7168 62.0671 68.8385 62.0671 68.8385C62.0671 68.8385 61.802 72.2862 61.802 72.8165C61.802 73.6122 62.3326 73.6122 62.3326 73.6122L62.3322 73.6139ZM146.666 110.211C141.097 110.211 135.528 108.355 131.55 103.582V103.847C129.163 107.029 126.511 107.029 125.45 107.029C124.389 107.029 120.942 105.439 119.616 103.847C118.29 102.256 118.29 99.3388 118.29 99.3388L112.986 97.4823L106.356 93.7694L105.295 93.504C103.173 94.5645 100.521 93.7694 98.1345 91.9125C97.8694 92.9734 96.5434 95.6254 94.952 96.9514C93.3608 98.2773 90.1786 100.134 87.7918 100.134C85.4049 100.134 80.101 97.4819 78.5095 93.7688C76.9184 90.056 78.5095 86.078 78.5095 86.078L75.8576 85.5477L74.7967 84.2221C74.7967 84.2221 71.6145 86.874 68.1668 85.8132C64.7191 84.7523 61.802 81.8352 61.0066 79.1833C60.476 76.5313 61.2717 74.1445 61.5368 73.8793C61.0066 72.0227 61.0066 70.9619 61.0066 70.9619H60.7411V70.1662C57.2937 72.553 53.3155 73.6135 49.0724 73.6135C44.2987 73.6135 39.7901 72.0224 36.0776 69.6356C36.6079 75.4701 38.199 82.3652 40.3207 90.056C43.2382 100.664 52.7852 104.112 67.1059 106.498C98.6648 111.538 128.898 135.67 126.776 150.522C134.732 143.892 143.218 134.08 151.705 119.493C155.153 113.924 151.97 110.211 146.666 110.211ZM70.0233 77.3264L69.4928 77.5921V79.7139L70.0233 79.4481V77.3264ZM131.019 90.3214C131.152 90.4543 131.285 90.5207 131.418 90.587C131.55 90.6532 131.682 90.7194 131.815 90.8517C133.406 91.9122 134.202 92.4428 134.467 94.8296C134.732 96.6859 134.202 99.3382 132.876 101.725C136.793 104.383 141.523 104.532 145.701 104.663C149.443 104.781 152.743 104.884 154.622 106.764C153.827 96.6859 138.975 86.6086 131.019 90.3211V90.3214ZM169.208 51.602C161.252 46.0329 141.627 35.9553 102.643 35.9553C89.1177 35.9553 77.7141 37.2813 68.697 39.1376C70.8187 42.5853 71.8796 46.5635 71.8796 50.8063C71.8796 56.6408 69.7582 61.9448 66.3102 65.9231C67.1059 66.1876 68.1668 66.4533 69.4928 66.7188L70.0233 65.3928C70.0233 65.3928 70.5536 65.3928 70.8187 65.6586C70.8187 64.3326 71.6145 64.3326 71.6145 64.3326C71.6145 64.3326 71.6145 64.0668 71.8796 64.0668C73.2056 64.3326 76.9184 66.1885 78.5095 66.9839C80.101 67.78 80.101 68.0448 80.101 68.0448C80.101 68.0448 83.8135 68.0448 84.8743 67.7793C85.5812 67.7793 86.6413 67.4259 88.0546 66.9548L88.0549 66.9547C88.7626 66.7187 89.5589 66.4533 90.4437 66.1879C91.3969 65.9019 92.076 65.6844 92.5795 65.5232C93.4769 65.2358 93.8167 65.127 94.1566 65.127C94.6868 65.127 99.4605 65.3928 103.704 65.9231C107.947 66.4533 111.925 68.0444 112.72 68.575L114.046 68.8408L114.312 68.0448L112.19 67.2487C112.19 67.2487 112.455 65.9231 112.455 65.6576C112.455 65.3922 112.721 65.1273 112.986 65.1273C113.251 65.1273 115.638 65.6576 116.433 65.9234C116.865 66.0669 117.843 66.6793 118.69 67.2095C119.404 67.6563 120.025 68.0448 120.146 68.0448C120.411 68.0448 120.411 68.3106 120.411 68.3106C120.411 68.8408 119.881 69.9017 119.881 69.9017C119.881 69.9017 120.677 70.1675 120.942 70.4319C121.039 70.5296 121.208 70.6629 121.422 70.8319C121.791 71.1229 122.295 71.5199 122.798 72.0231C123.594 72.5533 123.329 73.3491 123.329 73.3491L125.185 75.2053V76.0013L129.693 80.5099V80.7754L127.572 82.1013C127.572 82.1013 130.489 81.8356 132.61 82.8971C134.732 83.9579 134.997 84.4885 134.997 85.0188C134.467 85.2846 133.671 85.549 133.671 85.549C132.08 86.0793 128.102 88.7316 128.102 88.7316V88.9971L130.224 89.5273C132.61 87.4056 136.854 86.6102 140.036 87.1405C150.91 89.2622 158.335 96.4227 159.926 102.522C159.926 102.655 159.992 102.854 160.059 103.053L160.059 103.053C160.125 103.252 160.191 103.451 160.191 103.583C171.064 78.1237 170.004 59.825 169.208 51.6036V51.602ZM58.6197 114.455C55.172 114.455 51.1941 115.781 53.5809 119.493C71.881 150.901 91.1036 159.939 100.712 164.456C101.407 164.783 102.052 165.087 102.643 165.373L102.988 165.212C106.984 163.349 113.204 160.449 120.677 155.295C125.185 152.378 124.655 147.87 123.594 144.953C118.024 131.162 87.5263 115.515 58.6194 114.454L58.6197 114.455ZM77.4487 75.205C76.8586 75.5983 76.2684 76.5756 76.1113 77.5954L74.5316 78.1218C74.0013 77.0612 71.6145 74.1438 71.6145 74.1438L71.0839 76.2655C71.3493 76.531 72.675 78.6523 72.9405 79.1826L72.1451 79.9783C72.1451 79.9783 71.8796 80.5086 71.8796 80.7744C71.8796 81.0398 71.6145 81.3046 71.6145 81.3046L70.5536 81.8346H70.2885L66.5757 78.9175V81.0392H66.8408L66.841 81.0397C67.1062 81.5698 67.6369 82.6305 68.9625 83.1609C70.0233 83.6908 71.3493 83.6908 71.8796 83.4264C72.0826 83.528 72.2467 83.5907 72.3869 83.6442C72.6129 83.7306 72.7766 83.7932 72.9405 83.9566C74.0013 84.4869 74.2664 84.2221 74.2664 84.2221L75.8576 83.6918H76.123L76.3878 83.4264L76.9184 82.3655C76.9184 82.3655 79.5704 82.6313 80.6312 82.6313C81.6921 81.0398 85.1398 78.6533 87.5266 78.3879C89.9135 78.3879 93.8914 78.9181 97.0737 82.1007C99.9908 85.2829 99.1954 89.5264 99.1954 89.5264L105.03 91.3826L102.378 89.5264C100.256 84.2224 95.2174 79.4487 95.2174 79.4487C95.2174 79.4487 93.8914 79.1833 93.0957 79.1833C92.3003 78.9175 91.7697 78.3872 91.7697 78.3872C91.7697 78.3872 91.5046 78.1218 90.974 77.3264L90.4437 76.2655C90.4437 76.2655 89.9131 75.7352 89.1174 75.205C88.5183 74.8055 86.7152 74.5562 85.1819 74.3441L85.1818 74.3441C84.6796 74.2747 84.2064 74.2092 83.8138 74.1438C82.2224 73.8783 82.2224 74.1438 82.2224 74.1438C83.0268 74.3331 83.7299 74.4971 84.3437 74.6403C87.1703 75.2996 88.1042 75.5174 88.322 75.7352C88.322 75.7352 88.5872 76.2655 88.8523 76.531C85.1395 75.7352 81.6921 76.2655 80.8964 76.531C81.427 77.3267 81.427 78.3875 80.8964 79.1829C80.3661 79.7132 78.7747 80.5092 78.7747 80.5092H78.2444L76.9184 80.2435C75.8241 80.0244 75.9943 78.3607 76.0872 77.786C76.0582 78.0784 76.0667 78.3715 76.123 78.6527C76.3878 79.9787 76.6533 79.9787 77.4487 79.9787C76.123 79.4484 76.3878 77.3264 77.4487 76.0007C78.2444 74.9398 79.0401 75.7349 79.0401 75.7349C79.0401 75.7349 78.2444 74.6741 77.4487 75.2046V75.205ZM71.0839 66.9839C75.3273 67.5139 76.123 68.3099 76.123 68.3099C76.123 68.3099 77.7141 68.0441 78.5095 68.0441C77.1835 66.9836 71.3493 65.127 71.3493 65.127C71.3493 65.127 71.0839 65.9227 71.0839 66.9836V66.9839ZM69.2276 67.7764L69.2286 67.7766L69.4928 66.9839L74.5316 68.3099C74.5316 68.3099 73.421 68.4689 72.7951 68.541L72.9405 68.5721C72.9405 68.5721 68.9625 69.3682 68.4322 69.3682C68.4322 69.5003 68.366 69.5664 68.2997 69.6326C68.2333 69.6989 68.1668 69.7652 68.1668 69.8981H67.9016V70.959L67.6365 71.2247V71.4902C67.9019 71.6229 68.4332 71.9549 68.9642 72.2867L68.9645 72.2869C69.4942 72.6179 70.0237 72.9488 70.2885 73.0813H70.8187L71.0842 73.3471C71.0842 73.3471 70.0233 73.0826 69.7582 73.6126C69.4931 74.1431 69.2276 75.9994 69.2276 75.9994C69.2276 75.9994 69.2276 76.7954 70.8187 76.7954V77.0609L70.5536 77.3264H70.0233L69.4928 76.7964L69.2276 76.2661L66.8408 74.9402V76.001H67.1059V77.5921H66.8408V76.5313L66.5757 78.3879H64.9845L65.2497 75.4704V75.4678C65.2497 75.4678 64.4539 75.2021 64.7194 74.6718C64.7194 74.1412 64.9845 70.4287 64.9845 70.4287C64.9845 70.4287 65.5151 68.307 66.8408 66.7159C67.3714 66.9813 68.1668 67.2461 69.2276 67.5116V67.7764ZM86.4658 88.2C84.6092 91.6477 85.9352 94.0346 85.9352 94.0346L88.322 90.5869V90.0566L86.4658 88.2ZM88.8526 73.6142L89.648 73.8796C89.648 73.8796 90.1786 73.8796 90.1786 73.3494V72.2888L89.3829 71.7586L88.322 71.4928C88.5872 71.7586 88.5872 72.0231 88.5872 72.0231H88.8523C88.8523 71.7576 89.1177 71.7576 89.1177 72.0231C89.1177 72.0231 89.648 72.2888 89.3829 73.0839C89.648 73.3494 89.1178 73.6142 88.8526 73.6142ZM128.898 103.847L127.837 100.665H127.572L125.981 103.582L126.246 103.847C127.572 104.378 128.898 103.847 128.898 103.847V103.847ZM125.45 80.5092C125.45 80.5092 124.92 81.5701 124.655 81.8352C124.478 82.0122 123.596 82.1886 122.713 82.3651L122.713 82.3651C122.27 82.4538 121.827 82.5425 121.472 82.6313C121.222 82.7562 120.928 82.8958 120.618 83.0432L120.617 83.0435L120.617 83.0436C119.61 83.5219 118.43 84.0823 118.024 84.4875C117.759 84.7533 117.759 85.5484 117.759 85.8135C117.759 85.8135 117.915 85.8913 118.099 85.9628C118.178 86.045 118.308 86.1221 118.436 86.1852L116.168 88.2007L116.698 88.7309L122.533 90.5875C123.859 89.5267 125.715 89.2615 125.715 89.2615C124.654 88.7313 120.146 86.8747 118.82 86.3444C118.82 86.3444 118.63 86.281 118.436 86.1852L118.555 86.0793C118.433 86.0793 118.256 86.0233 118.099 85.9628C118.053 85.9144 118.024 85.8643 118.024 85.8142V85.0185C118.024 85.0185 121.472 82.3661 126.776 82.3661L127.572 80.775L125.45 80.5092ZM126.776 97.7474C125.45 100.399 125.715 102.256 125.715 102.256L127.041 99.3385V98.8082C127.307 98.8082 127.041 98.278 126.776 97.7474ZM121.207 91.6477L119.616 91.1175L115.903 95.3606L118.555 96.1563C119.085 94.0349 121.207 91.6477 121.207 91.6477ZM127.572 96.4214L128.102 97.2171L128.367 96.9517L130.489 94.2994V94.0339C129.428 94.0339 127.572 96.4208 127.572 96.4208V96.4214ZM129.163 99.6036L129.959 103.051C129.959 103.051 130.754 102.255 131.55 101.195C132.345 100.134 132.61 99.0734 132.61 99.0734L129.428 99.3392L129.163 99.6036ZM131.815 94.2997L129.693 97.2168V97.4826H132.61C133.141 95.626 131.815 94.2997 131.815 94.2997ZM86.996 73.3487L87.0022 73.3489L86.996 73.3491V73.3487ZM87.8314 71.5079C87.8063 71.4976 87.7918 71.4928 87.7918 71.4928H87.2612L86.9671 71.591C87.1427 71.3962 87.3767 71.2273 87.5263 71.2273C87.5263 71.2273 87.7449 71.2273 87.8314 71.5079ZM86.9671 71.591C86.8316 71.7415 86.7309 71.9076 86.7309 72.0234C86.7309 72.5533 86.7309 72.8191 86.996 73.3494L86.4658 73.6148H86.2003L86.4658 71.7586L86.9671 71.591ZM87.8314 71.5079C87.8796 71.6645 87.8867 71.9085 87.7918 72.2885C87.7918 73.2945 87.0758 73.3462 87.0022 73.3489C87.0445 73.3508 87.3077 73.372 87.7918 73.6145C88.322 73.6145 88.5872 73.0842 88.5872 72.5537C88.5872 71.8651 87.9921 71.574 87.8314 71.5079ZM112.19 70.4316C111.965 69.9808 111.548 69.9133 109.473 69.5772L109.47 69.5768C109.105 69.5176 108.688 69.4501 108.212 69.3708C107.407 69.2977 106.622 69.2246 105.896 69.157L105.894 69.1569L105.894 69.1569C103.992 68.9797 102.496 68.8405 102.112 68.8405C101.582 68.8405 101.317 69.1063 101.317 69.1063C101.317 69.1063 99.7256 70.1671 98.3997 70.9625C97.0737 71.7583 96.8085 72.0234 96.5434 72.5537C96.2783 72.8191 97.0737 73.88 97.0737 73.88L99.1954 76.5319C99.4605 76.5319 100.256 77.0619 100.256 77.0619C100.256 77.0619 104.499 76.7964 107.151 76.5319H114.047C114.312 76.5319 114.047 75.4711 113.516 74.1448C112.986 73.0839 112.19 70.4323 112.19 70.4323V70.4316ZM85.1395 68.0448C85.1395 68.0448 86.996 69.1056 87.2612 69.1056C87.4426 69.1056 89.2378 69.7263 90.8632 70.2883L90.8634 70.2884C91.6137 70.5478 92.3278 70.7947 92.8303 70.9622C93.8532 71.371 94.5604 71.1492 94.952 71.0263C95.0681 70.9899 95.1565 70.9622 95.2171 70.9622C95.4825 70.9622 99.9908 68.3102 99.9908 68.3102C96.0128 66.7188 92.3 65.6579 92.3 65.6579C92.0349 65.6579 85.1395 68.0448 85.1395 68.0448ZM115.107 88.9958L110.599 92.9737L114.046 94.0346L117.494 90.3217L115.637 89.5257L115.107 88.9958ZM90.7089 74.4096C90.7089 74.4096 93.626 74.4096 97.6039 75.2053C94.952 73.3491 90.7089 72.2882 90.7089 72.2882V74.4096ZM100.521 78.3875C102.112 80.2441 103.704 82.8961 103.704 82.8961C106.356 80.2441 111.925 79.1833 119.085 79.4484C109.008 77.3267 100.521 78.3875 100.521 78.3875ZM115.637 72.8185L114.312 73.3487L115.903 76.2658L121.207 78.1224C119.086 73.6139 115.637 72.8181 115.637 72.8181V72.8185ZM91.2391 96.156L89.648 92.178H89.1174L86.4658 95.3606C88.322 96.9517 91.2391 96.1563 91.2391 96.1563V96.156ZM96.5434 79.7135C96.5434 79.7135 99.9908 79.9793 102.908 83.6915L101.317 83.9573L100.521 83.6915C100.521 83.6915 98.1345 80.7744 96.5434 79.7135ZM65.5147 50.8073C65.5147 41.7265 58.1532 34.3649 49.0723 34.3649C39.9915 34.3649 32.6299 41.7265 32.6299 50.8073C32.6299 59.8882 39.9915 67.2497 49.0723 67.2497C58.1532 67.2497 65.5147 59.8882 65.5147 50.8073Z" fill="#00F2B2"/>
</svg>
