<svg width="1354" height="1354" viewBox="0 0 1354 1354" fill="none" xmlns="http://www.w3.org/2000/svg">
<circle cx="690.692" cy="691.192" r="541" fill="url(#paint0_radial_186_2541)"/>
<path d="M1257.98 95.7327H1187.9V131.729L1187.11 132.686C1166.06 158.05 1122.88 206.541 1070.2 246.485L1067.96 248.194L1065.86 246.314C1018.93 204.387 977 179.569 967.087 173.929L928.578 212.437C938.816 218.351 967.685 235.853 1002.33 263.85L1005.29 266.243L283.711 987.853C283.147 988.417 282.583 988.999 282.036 989.58C218.198 1055.08 171.536 1164.82 159.896 1193.85C188.936 1182.19 298.667 1135.55 364.147 1071.72L366.557 1069.37L1088.13 347.807L1090.53 350.712C1110.2 374.658 1127.27 399.664 1141.34 425.097L1179.81 386.623C1161.12 352.37 1136.88 319.024 1107.77 287.489L1105.82 285.386L1107.55 283.113C1147.46 230.606 1195.8 187.585 1221.04 166.614L1222 165.827H1257.98V95.7669V95.7327Z" stroke="#00A982" stroke-width="1.5"/>
<path d="M265.799 265.799V912.665L912.665 265.799H770.921L364.933 671.787V265.799H265.799Z" stroke="#00A982" stroke-width="1.5"/>
<path d="M1087.93 749.504V441.044L441.044 1087.93H1087.93V819.582H940.132L840.998 918.716H988.794V988.793H681.923L988.794 681.922V749.504H1087.93Z" stroke="#00A982" stroke-width="1.5"/>
<path d="M947.433 406.267H914.804V423.028L914.437 423.473C904.633 435.284 884.53 457.862 860.002 476.461L858.959 477.257L857.98 476.381C836.126 456.859 816.604 445.303 811.989 442.677L794.058 460.608C798.825 463.361 812.267 471.511 828.399 484.546L829.776 485.661L493.794 821.658C493.532 821.92 493.269 822.191 493.015 822.462C463.29 852.958 441.563 904.059 436.144 917.573C449.665 912.145 500.758 890.427 531.247 860.71L532.369 859.612L868.35 523.638L869.464 524.991C878.625 536.141 886.575 547.784 893.125 559.626L911.039 541.712C902.333 525.763 891.048 510.236 877.494 495.553L876.587 494.574L877.391 493.516C895.974 469.067 918.48 449.036 930.235 439.271L930.681 438.905H947.433V406.283V406.267Z" fill="#004940" stroke="#00F2B2" stroke-width="3"/>
<path d="M485.454 485.454V786.649L786.649 485.454H720.65L531.613 674.49V485.454H485.454Z" fill="#004940" stroke="#00F2B2" stroke-width="3"/>
<path d="M868.255 710.677V567.052L567.052 868.254H868.255V743.307H799.438L753.279 789.466H822.096V822.095H679.21L822.096 679.21V710.677H868.255Z" fill="#004940" stroke="#00F2B2" stroke-width="3"/>
<defs>
<radialGradient id="paint0_radial_186_2541" cx="0" cy="0" r="1" gradientUnits="userSpaceOnUse" gradientTransform="translate(690.692 691.192) rotate(90) scale(541)">
<stop stop-color="#00F2B2" stop-opacity="0.2"/>
<stop offset="0.495" stop-color="#00F2B2" stop-opacity="0.05"/>
<stop offset="1" stop-color="#00F2B2" stop-opacity="0"/>
</radialGradient>
</defs>
</svg>
